<?xml version="1.0" encoding="UTF-8"?>
<svg width="938px" height="914px" viewBox="0 0 938 914" version="1.1" xmlns="http://www.w3.org/2000/svg" xmlns:xlink="http://www.w3.org/1999/xlink">
    <!-- Generator: Sketch 43.2 (39069) - http://www.bohemiancoding.com/sketch -->
    <title>Helix Square Logo</title>
    <desc>Created with Sketch.</desc>
    <defs></defs>
    <g id="Page-1" stroke="none" stroke-width="1" fill="none" fill-rule="evenodd">
        <g id="V2" transform="translate(0.000000, 4.000000)">
            <g id="LI-Copy" transform="translate(1.000000, 484.000000)" fill="#5F574F">
                <g id="Group-Copy-7" transform="translate(40.000000, 215.000000) rotate(90.000000) translate(-40.000000, -215.000000) translate(-175.000000, 175.000000)">
                    <rect id="Rectangle" x="40" y="0" width="350" height="80"></rect>
                    <circle id="Oval" cx="390" cy="40" r="40"></circle>
                    <circle id="Oval-Copy" cx="40" cy="40" r="40"></circle>
                </g>
                <g id="Group-Copy-9" transform="translate(390.000000, 215.000000) rotate(90.000000) translate(-390.000000, -215.000000) translate(175.000000, 175.000000)">
                    <rect id="Rectangle" x="40" y="0" width="350" height="80"></rect>
                    <circle id="Oval" cx="390" cy="40" r="40"></circle>
                    <circle id="Oval-Copy" cx="40" cy="40" r="40"></circle>
                </g>
                <g id="Group-Copy-8" transform="translate(0.000000, 350.000000)">
                    <rect id="Rectangle" x="40" y="0" width="240" height="80"></rect>
                    <circle id="Oval" cx="280" cy="40" r="40"></circle>
                    <circle id="Oval-Copy" cx="40" cy="40" r="40"></circle>
                </g>
            </g>
            <g id="E-Copy" transform="translate(507.000000, 1.000000)" fill="#5F574F">
                <g id="Group-Copy-3" transform="translate(40.000000, 215.000000) rotate(90.000000) translate(-40.000000, -215.000000) translate(-175.000000, 175.000000)">
                    <rect id="Rectangle" x="40" y="0" width="350" height="80"></rect>
                    <circle id="Oval" cx="390" cy="40" r="40"></circle>
                    <circle id="Oval-Copy" cx="40" cy="40" r="40"></circle>
                </g>
                <g id="Group-Copy-4">
                    <rect id="Rectangle" x="40" y="0" width="350" height="80"></rect>
                    <circle id="Oval" cx="390" cy="40" r="40"></circle>
                    <circle id="Oval-Copy" cx="40" cy="40" r="40"></circle>
                </g>
                <g id="Group-Copy-5" transform="translate(0.000000, 175.000000)">
                    <rect id="Rectangle" x="40" y="0" width="350" height="80"></rect>
                    <circle id="Oval" cx="390" cy="40" r="40"></circle>
                    <circle id="Oval-Copy" cx="40" cy="40" r="40"></circle>
                </g>
                <g id="Group-Copy-6" transform="translate(0.000000, 350.000000)">
                    <rect id="Rectangle" x="40" y="0" width="350" height="80"></rect>
                    <circle id="Oval" cx="390" cy="40" r="40"></circle>
                    <circle id="Oval-Copy" cx="40" cy="40" r="40"></circle>
                </g>
            </g>
            <g id="H-Copy" fill="#8C1515">
                <g id="Group-Copy-2" transform="translate(1.000000, 176.000000)">
                    <rect id="Rectangle" x="40" y="0" width="350" height="80"></rect>
                    <circle id="Oval" cx="390" cy="40" r="40"></circle>
                    <circle id="Oval-Copy" cx="40" cy="40" r="40"></circle>
                </g>
                <g id="Group-Copy" transform="translate(391.000000, 216.000000) rotate(90.000000) translate(-391.000000, -216.000000) translate(176.000000, 176.000000)">
                    <rect id="Rectangle" x="40" y="0" width="350" height="80"></rect>
                    <circle id="Oval" cx="390" cy="40" r="40"></circle>
                    <circle id="Oval-Copy" cx="40" cy="40" r="40"></circle>
                </g>
                <g id="Group" transform="translate(40.781250, 215.605469) rotate(90.000000) translate(-40.781250, -215.605469) translate(-174.218750, 175.605469)">
                    <rect id="Rectangle" x="40" y="0" width="350" height="80"></rect>
                    <circle id="Oval" cx="390" cy="40" r="40"></circle>
                    <circle id="Oval-Copy" cx="40" cy="40" r="40"></circle>
                </g>
            </g>
            <g id="helix" transform="translate(527.000000, 502.000000)" stroke="#8C1515" stroke-width="40" stroke-linecap="round">
                <path d="M1,1 C1,153.3143 391,226.363456 391,391" id="Path-2"></path>
                <path d="M0,1 C1.50436943e-14,153.3143 390,226.363456 390,391" id="Path-2-Copy" transform="translate(195.000000, 196.000000) scale(-1, 1) translate(-195.000000, -196.000000) "></path>
                <path d="M58.5,1 L331.5,1" id="Line"></path>
                <path d="M116.5,74 L259.5,74" id="Line-Copy-2"></path>
                <path d="M124.5,309 L267.5,309" id="Line-Copy-3"></path>
                <path d="M58.5,391 L331.5,391" id="Line-Copy"></path>
            </g>
        </g>
    </g>
</svg>